# xmcd
#
# Track frame offsets:
#	150
#	14856
#	30493
#	47738
#	65678
#	86200
#	103169
#	119909
#	134808
#	150887
#	170650
#	191803
#	209445
#	226416
#	242399
#	256662
#	271735
#	288542
#
# Disc length: 4080 seconds
#
# Revision: 4
# Processed by: cddbd v1.5.2PL0 Copyright (c) Steve Scherf et al.
# Submitted via: EasyCDDAExtractor 15.3.0.1
#
DISCID=0f0fee12
DTITLE=P!nk - I'm Not Dead (Platinum Edition)
DYEAR=2007
DGENRE=Pop/Rock
TTITLE0=Stupid Girls
TTITLE1=Who Knew
TTITLE2=Long Way To Happy
TTITLE3=Nobody Knows
TTITLE4=Dear Mr. President (Featuring Indigo Girls)
TTITLE5=I'm Not Dead
TTITLE6=Cuz I Can
TTITLE7=Leave Me Alone (I'm Lonely)
TTITLE8=U and Ur Hand
TTITLE9=Runaway
TTITLE10=The One That Got Away
TTITLE11=I Got Money Now
TTITLE12=Conversation With My 13 Year Old Self
TTITLE13=I Have Seen The Rain
TTITLE14=Heartbreaker (Bonus Track)
TTITLE15=Centerfold (Bonus Track)
TTITLE16=Fingers (Bonus Track)
TTITLE17=U and Ur Hand (Bimbo Jones Remix) (Bonus Track)
EXTD=lori stewart\npink\nu+ur hand\nI'm not dead
EXTT0=
EXTT1=
EXTT2=
EXTT3=
EXTT4=
EXTT5=
EXTT6=
EXTT7=
EXTT8=
EXTT9=
EXTT10=
EXTT11=
EXTT12=
EXTT13=
EXTT14=
EXTT15=
EXTT16=
EXTT17=
PLAYORDER=
